/* XPM */
static const char *char[] = {
/* columns rows colors chars-per-pixel */
"32 32 213 2 ",
"   c #060D12",
".  c #031217",
"X  c #0F1318",
"o  c #0A1A1A",
"O  c #101416",
"+  c #101519",
"@  c #1A1719",
"#  c #141C1C",
"$  c #211E1E",
"%  c #381B1E",
"&  c #0E210F",
"*  c #12210E",
"=  c #162719",
"-  c #19231E",
";  c #25221E",
":  c #2C2F1C",
">  c #392516",
",  c #2E331D",
"<  c #30351E",
"1  c #021526",
"2  c #141D20",
"3  c #1B2521",
"4  c #1F2F25",
"5  c #162A2D",
"6  c #192928",
"7  c #262C25",
"8  c #312625",
"9  c #332B26",
"0  c #3C2922",
"q  c #312728",
"w  c #342929",
"e  c #223124",
"r  c #293729",
"t  c #3A3526",
"y  c #3C322A",
"u  c #383F30",
"i  c #4E1E1C",
"p  c #573017",
"a  c #462C27",
"s  c #512621",
"d  c #45362C",
"f  c #4D352E",
"g  c #46392A",
"h  c #563729",
"j  c #4A3432",
"k  c #513631",
"l  c #533C31",
"z  c #633B2F",
"x  c #3C4C2A",
"c  c #264336",
"v  c #334E33",
"b  c #2F5233",
"n  c #3A5939",
"m  c #3F6139",
"M  c #52471A",
"N  c #7A7A1F",
"B  c #4B4D20",
"V  c #4D4C35",
"C  c #584233",
"Z  c #425737",
"A  c #6E4B39",
"S  c #42643B",
"D  c #46683D",
"F  c #726E25",
"G  c #6D772D",
"H  c #7D7C24",
"J  c #233749",
"K  c #2B4B44",
"L  c #2B4A47",
"P  c #2F4D46",
"I  c #30514A",
"U  c #335448",
"Y  c #334254",
"T  c #2B5654",
"R  c #2D5B52",
"E  c #355C53",
"W  c #385F53",
"Q  c #3A6541",
"!  c #356353",
"~  c #396153",
"^  c #346B54",
"/  c #3D6952",
"(  c #3C7453",
")  c #445949",
"_  c #58534E",
"`  c #595D4D",
"'  c #425651",
"]  c #7A5540",
"[  c #715056",
"{  c #456E42",
"}  c #486F42",
"|  c #4C684F",
" . c #5D6A4E",
".. c #4B7343",
"X. c #4E7946",
"o. c #45744B",
"O. c #4D7B4C",
"+. c #557A46",
"@. c #457651",
"#. c #467B51",
"$. c #736F4D",
"%. c #6B7A49",
"&. c #903A2C",
"*. c #9F3F31",
"=. c #C83F2E",
"-. c #945032",
";. c #B84F2D",
":. c #B74935",
">. c #A65839",
",. c #B25030",
"<. c #877C20",
"1. c #917E21",
"2. c #9A633C",
"3. c #AD7C34",
"4. c #B1733F",
"5. c #C74431",
"6. c #C4583C",
"7. c #D85737",
"8. c #835642",
"9. c #8B5D46",
"0. c #B05542",
"q. c #966745",
"w. c #9B664D",
"e. c #897147",
"r. c #A36B4E",
"t. c #AF7241",
"y. c #B27244",
"u. c #A66B51",
"i. c #AC6F52",
"p. c #AD7152",
"a. c #B47455",
"s. c #BA7857",
"d. c #BC7859",
"f. c #C75544",
"g. c #EF5C40",
"h. c #F35E41",
"j. c #CF6F44",
"k. c #CB7544",
"l. c #C07A57",
"z. c #C17C5A",
"x. c #E26C42",
"c. c #FF6D42",
"v. c #FF7043",
"b. c #60803F",
"n. c #7A8935",
"m. c #79963D",
"M. c #4A824F",
"N. c #54854D",
"B. c #59864B",
"V. c #5C8C4C",
"C. c #4D8352",
"Z. c #538751",
"A. c #558A51",
"S. c #588C51",
"D. c #5C9253",
"F. c #628C46",
"G. c #638B48",
"H. c #659148",
"J. c #6A9349",
"K. c #719647",
"L. c #609553",
"P. c #629A56",
"I. c #858126",
"U. c #8B8426",
"Y. c #8E9725",
"T. c #8F982E",
"R. c #979428",
"E. c #9C9D2E",
"W. c #918430",
"Q. c #879A37",
"!. c #8C9C30",
"~. c #959535",
"^. c #929E34",
"/. c #A98728",
"(. c #B48A2A",
"). c #A79A2C",
"_. c #AB9C2E",
"`. c #A58539",
"'. c #9BA12E",
"]. c #9CA332",
"[. c #A6A329",
"{. c #A9A229",
"}. c #ACA728",
"|. c #B2A526",
" X c #B1A729",
".X c #BAA32D",
"XX c #B2AA2A",
"oX c #B7AB28",
"OX c #BBB22B",
"+X c #BAAA39",
"@X c #C38C3E",
"#X c #B5AC42",
"$X c #BDB041",
"%X c #CF8650",
"&X c #CD825D",
"*X c #CF835E",
"=X c #D2855F",
"-X c #D5875F",
";X c #D7885F",
":X c #E68C4F",
">X c #FF8D52",
",X c #FF9552",
"<X c #FD9756",
"1X c #EDA34A",
"2X c #EDA854",
"3X c #F99F75",
"4X c #F2B669",
"5X c #99A2B7",
"6X c #CFCCB3",
"7X c #F8DEAD",
"8X c #FAE6BF",
"9X c #B8BCCF",
"0X c #E8CCCA",
/* pixels */
"-X-X-X-X-X-X;X=Xz.d.d.d.d.d.d.d.d.d.d.d.d.d.d.d.d.d.d.d.d.z.=X;X",
"*X*X*X*X*X*X=X*Xz.d.d.d.z.z.z.z.z.z.z.z.z.z.9.$ X X + # l a.*X=X",
"z.z.z.z.z.z.d.u.w.w.w.w.i.i.i.i.i.i.i.i.i.u.] r e e 3 # l a.d.z.",
"d.d.d.d.s.s.u.j q q q q w w w w w w w w q 8 u D X...v - l z.z.z.",
"d.d.d.d.a.w.] t < , , , , , , , , , , , : : x N.P.L.S - a r.i.*X",
"z.z.z.z.i.j t F U.U.I.I.I.I.I.I.I.I.I.I.I.I.n.B.D.L.S # @ y y -X",
"*X*X*Xi.9.9 B R.OXXXXXXXXXXXXXXXXXXXXXXXXXoX^.V.O...n r - # # -X",
"-X-Xl.k g F R.[.}.}.{.{.{.{.{.{.{.{.{.{.}.|.^.V.Q 4 r } n - + =X",
"-Xi.9.7 x R.OX}.[.{.{.{.{.{.{.{.{.{.{.{.{.{.^.K.D e v V.} - X =X",
"=X9 u n b.E. X{.{.{.{.{.{.{.{.{.{.{.{.{.{.{.[.E.n.X.N.D.D - X =X",
"=XX 4 ..K.].|.{.{.{.{.{.[.{.{.{.[.{.{.{.{.{.}.|.T.+.....v - + =X",
"-XX 4 { J.'.|.{.{.{.{.{.[.{.{.{.{.{.{.{.{.{. XoXH r 3 4 3 # # -X",
";XX 4 { J.Q.E.[.{.}.}.}.{.{.[.[.{.{.}.}.{.{.[.].G r # X $ y d -X",
"=XX e } V.G.m.'.}.XXXXXX X[.[.[.}.XXXXXXXX}.^.J.B.X.v # d r.a.*X",
"z.X e ..A.#.+.`./.<.N H U./.(.(./.U.H H 1.(.W.O.C.D.S - l z.z.z.",
"z.X e ..Z.^ ` ,.,.> & = h ,.7.7.-.g = * p ;.>.) ( N.S - f a.d.d.",
"*XX e ..C.R _ 6.f.[ J 1 % :.h.g.*.@ 1 Y [ 7.0.' ^ N.m - f p.d.d.",
"-XX e ..C.R ` k.3X0X5X5 > k.,X>X>.@ Y 9X0X<Xy.' ! N.m - f a.z.z.",
"-XX e ..A./  .@X4X8X6XV M @X1X1X3.M $.6X7X2X`.| ( S.S - f z.*X*X",
"=XX e ..D.C.G.)..X$X+XR.R._..X.X_.R.).#X+X.X~.B.Z.D.m - f z.-X-X",
"=Xd V Z ..N.J.Q.T.Y.Y.].].!.!.!.^.].'.Y.Y.T.m.H.N.} Z g A *X-X-X",
"=Xs.w.y r X.L.G.F.F.F.F.F.F.F.F.F.F.F.F.F.F.H.D.D e f r.z.=X-X=X",
"=X=Xd.8 - b { o.@.@.@.@.@.@.@.@.@.@.@.@.@.@.o.Q c o k =X-X-X-X=X",
"-X=Xa.9 o o 4 I ~ W E E E E E E E E E E ~ E L 6 o o C *X*X*X=X=X",
";Xq.8.h s i a ) / E E ~ / / / | / / ~ E E / ) a i s z 8.w.d.=X-X",
"=X3 a *.5.=.>.%.#.! ~ O.N.N.Z.Z.N.N.@.E ! M.$.:.=.5.&.8 C a.=X-X",
"z.. 0 6.v.c.j.%.( E ~ @.X.D S S } X.@.E ! @.e.x.c.c.-.; y d.=X=X",
"z.. y k.<X,X%X .R E E ~ P 4 # - r U ~ E R R $.:X<X,X2.; d z.=X=X",
"*Xf A 2.t.4.e.) T E E E L 2     6 I E E R T ` q.4.t.-.C ] *X=X=X",
"-Xz.r.g ; ; r I E E E E L 3 O O 6 I E E E E L 7 ; 7 C s.*X=X=X=X",
"-X-Xa.9 .   2 L ~ E E E L 3 O O 6 I E E E E L o   . l =X=X=X=X=X",
"=X=X=X=X=X=X=X=X=X=X=X=X-X*Xz.s.d.d.d.d.d.d.s.z.*X-X-X=X=X=X=X=X"
};
