/* XPM */
static const char *collect[] = {
/* columns rows colors chars-per-pixel */
"32 32 180 2 ",
"   c #050C0E",
".  c #080E0E",
"X  c #050D10",
"o  c #061014",
"O  c #0C1315",
"+  c #101817",
"@  c #1D1A16",
"#  c #141A1A",
"$  c #191E1E",
"%  c #2F1E16",
"&  c #1A201E",
"*  c #25221E",
"=  c #342219",
"-  c #141F20",
";  c #1D2423",
":  c #222622",
">  c #242B2B",
",  c #292F2F",
"<  c #312924",
"1  c #322F29",
"2  c #2F342D",
"3  c #3D372D",
"4  c #2B2D31",
"5  c #2D3531",
"6  c #343435",
"7  c #333933",
"8  c #3D3C31",
"9  c #3F3C39",
"0  c #462E25",
"q  c #42352B",
"w  c #593C2B",
"e  c #463C30",
"r  c #593C30",
"t  c #603E2E",
"y  c #374038",
"u  c #59432F",
"i  c #4B4239",
"p  c #4A4638",
"a  c #5F4334",
"s  c #5C543F",
"d  c #66422F",
"f  c #604B3F",
"g  c #744D3B",
"h  c #3F3B45",
"j  c #443F45",
"k  c #3E4444",
"l  c #454146",
"z  c #454C43",
"x  c #474249",
"c  c #4A454A",
"v  c #444A4A",
"b  c #4E484A",
"n  c #524D41",
"m  c #524A4B",
"M  c #5A584C",
"N  c #4B5151",
"B  c #545450",
"V  c #6C5D43",
"C  c #62564C",
"Z  c #69554A",
"A  c #675A4E",
"S  c #7E5743",
"D  c #7A5947",
"F  c #6A5D54",
"G  c #566155",
"H  c #5A6253",
"J  c #5F695A",
"K  c #786949",
"L  c #6B6859",
"P  c #7C6D54",
"I  c #796A59",
"U  c #66705F",
"Y  c #606464",
"T  c #6B6F6F",
"R  c #6A7566",
"E  c #6E7A69",
"W  c #707764",
"Q  c #7F7D7A",
"!  c #80513A",
"~  c #875942",
"^  c #8A5D46",
"/  c #935F46",
"(  c #9C6347",
")  c #946249",
"_  c #996348",
"`  c #837151",
"'  c #85745D",
"]  c #8B7958",
"[  c #907F58",
"{  c #A16649",
"}  c #A2694C",
"|  c #AF6F4E",
" . c #B0704F",
".. c #AE6F50",
"X. c #AF7152",
"o. c #B47455",
"O. c #BC7856",
"+. c #B97759",
"@. c #BC7959",
"#. c #C17B57",
"$. c #C17C5A",
"%. c #C97F5A",
"&. c #78816C",
"*. c #7E8772",
"=. c #948058",
"-. c #A98C5E",
";. c #898163",
":. c #9F8A62",
">. c #868B7A",
",. c #9E8C72",
"<. c #8B957D",
"1. c #90977D",
"2. c #A28B64",
"3. c #AC9165",
"4. c #A8966C",
"5. c #B69A6C",
"6. c #B39B72",
"7. c #B29C78",
"8. c #BCA271",
"9. c #B4A67C",
"0. c #CE835E",
"q. c #D3865F",
"w. c #D6885F",
"e. c #D58760",
"r. c #C3A572",
"t. c #C6A976",
"y. c #CDAD76",
"u. c #CEB17B",
"i. c #D2B177",
"p. c #D4B47C",
"a. c #DBB97F",
"s. c #E1BD7F",
"d. c #888A87",
"f. c #8C9982",
"g. c #939C82",
"h. c #8F9393",
"j. c #969999",
"k. c #A49F91",
"l. c #94A087",
"z. c #9BA184",
"x. c #98A58B",
"c. c #9CA98F",
"v. c #A1A88A",
"b. c #BAA983",
"n. c #A3AF93",
"m. c #A6A9AA",
"M. c #B8BAB9",
"N. c #C0B285",
"B. c #D8B780",
"V. c #DCBC83",
"C. c #DCBF8A",
"Z. c #CDB999",
"A. c #DDC08D",
"S. c #DCC398",
"D. c #E5C185",
"F. c #E9C487",
"G. c #E1C799",
"H. c #E4CB9E",
"J. c #F2D19B",
"K. c #D5C6AB",
"L. c #E4CFAB",
"P. c #EBD2A6",
"I. c #F3DAAE",
"U. c #EBD6B2",
"Y. c #EAD9B9",
"T. c #F7DFB6",
"R. c #C5C7C7",
"E. c #C8CBCB",
"W. c #DBDDDF",
"Q. c #F4E4CA",
"!. c #F6E6CB",
"~. c #F5E9D5",
"^. c #F3EBDA",
"/. c #DFE0E0",
"(. c #E8E9E9",
"). c #F9F1E2",
"_. c #FCF6EA",
"`. c #F4F5F4",
"'. c #FDF9F1",
"]. c #FFFFFE",
/* pixels */
"w.w.w.w.w.w.w.q.$.@.@.@.@.@.@.@.@.@.@.@.@.@.@.@.@.@.@.@.@.$.q.w.",
"0.0.0.0.0.0.q.0.$.@.@.@.$.$.$.$.$.$.$.$.$.$.@.@.@.@.@.@.@.$.0.q.",
"$.$.$.$.$.$.$.$.@.@.+.@.0.q.0.0.q.q.q.q.q.0.@.+.@.@.@.@.@.@.@.@.",
"@.@.@.@.@.@.+.@.$.$.$.$.q.w.w.w.q.0.0.q.w.q.$.$.$.$.$.$.$.$.@.$.",
"@.@.@.@.@.@.+.@.0.q.0.0.q.w.w.q.$.@.@.$.q.q.q.0.0.0.0.0.0.0.0.0.",
"$.$.$.$.$.$.$.$.q.w.w.q.q.w.w.q.$.@.@.$.q.w.e.e.w.w.w.w.w.w.w.w.",
"0.0.0.0.0.0.0.0.q.w.q.q.~ @ . . . . . a 0.e.e.w.w.q.q.w.w.w.w.w.",
"w.w.w.w.w.w.w.0. .{ { { D B N N N N N Z ) ( ( } $.q.q.q.q.q.q.q.",
"w.q.w.w.w.w.w.O.d = = = L M.R.R.R.R.R.>.3 % % 0 ( w.w.q.q.q.q.q.",
"q.q.q.w.w.0.#._ i , ; , d.`.].].].].].m.k ; > 6 D #.%.q.q.q.q.q.",
"q.q.w.w.w.| d f Q j.h.j.R.].].].].].].W.m.h.j.h.F r / q.q.q.q.q.",
"w.q.0.0.0.! @ v M.].].].].].].].].].].].].].].(.T # w $.q.w.w.w.",
"w.q.$._ g Z Y h./.].].].].~.Q.Q.Q.Q.Q._.].].].].k.s u g ) 0.w.w.",
"q.0.+.t @ Y E.(.].].].].~.G.V.C.C.V.A.Y.].].].'.U.8.V : 0 ..0.0.",
"@./ ^ w 8 d.`.].].].'.).K.6.-.3.3.-.3.Z.~.).^.~.I.V.=.p e S ) $.",
"@.< q V 2.K.].].].].Q.H.7.I C A F C F ,.S.P.H.S.C.p.t.4.` i < @.",
"0.o : P a.T.).'.'._.L.r.] m h l x h x I 5.y.i.i.i.p.D.D.2.8 o @.",
"w.o : ` a.J.P.U.T.U.b.' A b x c c x c M I 2.y.s.a.p.D.F.3.8 o $.",
"w.o : P u.V.p.p.a.t.' b j c b b b b b l l L 6.a.B.p.V.V.:.8 o 0.",
"q.o : L 9.N.9.4.[ K i 4 4 6 6 6 6 6 6 4 4 9 V ] 4.9.N.b.;.7 o w.",
"q.o ; H 1.v.z.&.p & # $ $ $ $ $ $ $ $ $ $ $ $ 2 L g.v.z.W 5 O w.",
"q.o ; G f.c.x.E 5   X + # # + + + + + # # o   - G f.c.l.R 5 O q.",
"q.o ; H g.n.c.&.7 o o # # # # # # # # # # O X ; J l.n.x.E 5 O q.",
"w.* 1 M *.<.>.U 7 O O # # # # # # # # # # # O ; M *.<.>.U 8 * q.",
"w.~ S n z z z y : # # # # # # # # # # # # # # & 5 z z z n D ~ w.",
"q.0.o.a # # # # # # # # # # # # # # # # # # # # # # # # q } q.w.",
"$.@.+.a O o o O # # # # # # # # # # # # # # # # O O o o q X.q.q.",
"$.$.$.$.$.$.q.w.w.w.w.w.w.w.e.w.w.w.w.w.w.q.q.q.q.q.w.w.w.w.q.q.",
"0.0.0.0.0.0.q.w.w.w.q.q.q.w.w.e.w.w.e.e.w.w.w.w.q.q.q.w.w.q.q.q.",
"w.w.w.w.w.q.q.q.q.q.q.q.q.q.0.0.0.0.0.0.0.0.0.0.q.q.q.q.q.q.q.q.",
"w.w.w.w.q.q.q.q.q.q.q.w.w.q.$.$.$.$.$.$.$.$.$.$.q.w.w.q.q.q.q.q.",
"w.q.q.q.q.q.q.q.q.q.q.w.w.0.@.+.@.@.@.@.@.@.+.$.0.w.w.q.q.q.q.q."
};
