/* XPM */
static const char *exit[] = {
/* columns rows colors chars-per-pixel */
"32 32 117 2 ",
"   c #011217",
".  c #061519",
"X  c #0A1619",
"o  c #0D181A",
"O  c #141B1B",
"+  c #1A1D1C",
"@  c #242220",
"#  c #342A24",
"$  c #3E2B21",
"%  c #323025",
"&  c #3F3529",
"*  c #492F22",
"=  c #402D28",
"-  c #473024",
";  c #4C3124",
":  c #42372A",
">  c #533324",
",  c #553D2E",
"<  c #5C3A2F",
"1  c #7E4839",
"2  c #83442B",
"3  c #834A3A",
"4  c #8E4F3F",
"5  c #93503F",
"6  c #9D553B",
"7  c #B25632",
"8  c #BE643C",
"9  c #CE6136",
"0  c #C4633C",
"q  c #CB623C",
"w  c #D16237",
"e  c #DB6337",
"r  c #D4663B",
"t  c #D46B3E",
"y  c #DC693C",
"u  c #E36739",
"i  c #E46B3B",
"p  c #EB6B3A",
"a  c #F26B37",
"s  c #F36D3A",
"d  c #F96E3B",
"f  c #E3703E",
"g  c #EC743F",
"h  c #F1713C",
"j  c #FA713C",
"k  c #905140",
"l  c #9B5541",
"z  c #9D5943",
"x  c #9B5C48",
"c  c #A45C44",
"v  c #A85E43",
"b  c #A05F49",
"n  c #976A46",
"m  c #9C6B46",
"M  c #A26B46",
"N  c #A86846",
"B  c #A66149",
"V  c #AB654B",
"C  c #A36948",
"Z  c #BF6440",
"A  c #BE6D47",
"S  c #A7754D",
"D  c #AB754C",
"F  c #BF7246",
"G  c #B3754B",
"H  c #B97A4E",
"J  c #AE6B51",
"K  c #B67355",
"L  c #BB7757",
"P  c #B47C50",
"I  c #B97759",
"U  c #BC7859",
"Y  c #C36746",
"T  c #C16C47",
"R  c #CE6A40",
"E  c #D86F40",
"W  c #C27145",
"Q  c #CD7446",
"!  c #C27049",
"~  c #CF7748",
"^  c #D17446",
"/  c #DE7542",
"(  c #D17748",
")  c #D57B49",
"_  c #D87C49",
"`  c #C17B5A",
"'  c #CA7F5A",
"]  c #D67B52",
"[  c #E27341",
"{  c #EC7640",
"}  c #F27E44",
"|  c #DF814B",
" . c #CD815C",
".. c #CD815D",
"X. c #CF835E",
"o. c #DD8156",
"O. c #D0835C",
"+. c #D3865F",
"@. c #D5875F",
"#. c #D7885F",
"$. c #ED8146",
"%. c #EF8548",
"&. c #EC894C",
"*. c #ED8D4D",
"=. c #F38045",
"-. c #F38547",
";. c #F48547",
":. c #F18548",
">. c #F58748",
",. c #F1894A",
"<. c #F68849",
"1. c #F28C4B",
"2. c #F78E4C",
"3. c #F88D4B",
"4. c #FA924E",
"5. c #FD924E",
"6. c #FB944F",
/* pixels */
"@.@.@.@.@.@.#.X.x 4 k k k 4 4 4 4 4 4 k k k 4 x I U U U U ` +.#.",
"X.X.X.X.X.X.X.` B l l l l l l l l l l l l l l b K I I U U ` X.+.",
"` ` ` ` J b x B ! ^ q 0 Q ~ Q Q Q Q ~ Q 0 q ^ ! B x x V U U U ` ",
"U U I K c l k c | 3.g p -.4.2.2.2.2.4.;.p g 3.| v k l B I U ` ` ",
"U U B b A ( Q ( *.3.h p >.6.4.4.4.4.6.>.p h 3.*.( Q ( A B J X.X.",
"U I b c ) 5.4.2.2.%.f i $.,.,.,.,.,.,.$.i f %.2.2.4.5._ c B ' O.",
"B V T ) &.4.6.2.} [ W F / { { { { { { / W W [ } 2.6.4.&.) T V B ",
"4 l ) 5.3.,.1.:.h y D S t p p i i p p t D D y h :.1.,.3.5.) z 4 ",
"4 z _ 5.=.g g g d g H P [ d d s s s d [ P H g d g g g =.5._ z 4 ",
"4 z ( <.g u i i e 0 m m 0 w w w w w w 0 m m 0 e i p u g <.) z 4 ",
"k l R g p p j u 2 - & : ; > > > > > > ; : & - 2 u j p p g R l k ",
"k l q p p i u 7 $   . X X . X X X X . X X .   $ 7 u i p p q l k ",
"k l q p d r 2 $ + X o o o o o o o o o o o o X + $ 2 r d p q l k ",
"k l q p j 9 *   X O O O O O O O O O O O O O O X   * 9 j p q l k ",
"k l q p j 9 ;   X O O O O O O O O O O O O O O X   ; 9 j p q l k ",
"k l q p j w > X o O O O O O O O O O O O O O O o X > 9 j p q l k ",
"k l q p j w > X o O O O O O O O O O O O O O O o X > 9 j p q l k ",
"k l q p j w > X o O O O O O O O O O O O O O O o X > 9 j p q l k ",
"k l q p j w > X o O O O O O O O O O O O O O O o X > 9 j p q l k ",
"k l q p j w > X o O O O O O O O O O O O O O O o X > 9 j p q l k ",
"k l q p j w > X o O O O O O O O O O O O O O O o X > 9 j p q l k ",
"k l q p j w > X o O O O O O O O O O O O O O O o X > 9 j p q l k ",
"k l q p j w > X o O O O O O O O O O O O O O O o X > 9 j p q l k ",
"k l q p j w > . X O O O O O O O o O O O O O O X . > w j p q l k ",
"k l q a j w > . . X X X X X X X X X X X X X X . . > w j a q l k ",
"k l Z E [ 8 - X @ # # # # # # # # # # # # # # @ X - 8 [ E Z l k ",
"5 l C D P n % O < 4 3 3 3 3 3 3 3 3 3 3 3 3 4 < O # n P D C l 5 ",
"5 l N G H M , = 1 c c c l l l l l l l l l c c 3 = , M H G N l 5 ",
"k l 0 i i r 6 3 5 l l l l l l l l l l l l l l 4 3 6 r i i 0 l k ",
"k l q a a i Y V B B B B B B B B B B B B B B B B V Y i a a q l k ",
"k l q p p i ] X.X.X.X.X.X.' U I L L L L L L I ` ' ] i p p q l k ",
"k l q p p i o.+.+.+.+.+.@.X.` I U U U U U U I ` X.o.i p p q l k "
};
