/* XPM */
static const char *exit_close[] = {
/* columns rows colors chars-per-pixel */
"32 32 160 2 ",
"   c #07161A",
".  c #0A171B",
"X  c #141B1C",
"o  c #1B1C1B",
"O  c #1D211F",
"+  c #21201E",
"@  c #1B2220",
"#  c #312726",
"$  c #342B25",
"%  c #3B2B21",
"&  c #393227",
"*  c #3C352A",
"=  c #3C382C",
"-  c #422B20",
";  c #403427",
":  c #4B3124",
">  c #40372B",
",  c #523123",
"<  c #5C3524",
"1  c #553529",
"2  c #5A392E",
"3  c #5F3A31",
"4  c #653926",
"5  c #613B31",
"6  c #693D33",
"7  c #6A4035",
"8  c #644D38",
"9  c #6F4E3A",
"0  c #754A32",
"q  c #73583E",
"w  c #7C5641",
"e  c #82442B",
"r  c #8C472B",
"t  c #8C482D",
"y  c #90472B",
"u  c #8F4F3F",
"i  c #904E3E",
"p  c #835038",
"a  c #8D503E",
"s  c #94513D",
"d  c #A3573F",
"f  c #B15632",
"g  c #B85732",
"h  c #B95934",
"j  c #B75D3E",
"k  c #B95D3E",
"l  c #A7613D",
"z  c #B5663E",
"x  c #BC653D",
"c  c #C45D35",
"v  c #C95C34",
"b  c #C76339",
"n  c #CB6338",
"m  c #D36237",
"M  c #DB6437",
"N  c #D2643C",
"B  c #DC6638",
"V  c #D36B3F",
"C  c #DE6A3D",
"Z  c #E16537",
"A  c #E36738",
"S  c #E4693A",
"D  c #EC6C3A",
"F  c #F46E3A",
"G  c #FA6E3A",
"H  c #E3723F",
"J  c #EC743F",
"K  c #F4713C",
"L  c #F9713C",
"P  c #8D4F41",
"I  c #8E5041",
"U  c #8A5F46",
"Y  c #945340",
"T  c #9C5642",
"R  c #9A5B43",
"E  c #A25740",
"W  c #A35B42",
"Q  c #A95D44",
"!  c #8C6746",
"~  c #946345",
"^  c #9B6146",
"/  c #9E6748",
"(  c #966C48",
")  c #9C6B49",
"_  c #9A714B",
"`  c #A36242",
"'  c #AD6244",
"]  c #A36A44",
"[  c #A36549",
"{  c #AB654B",
"}  c #A46C4B",
"|  c #AB6A4E",
" . c #B36645",
".. c #B96241",
"X. c #B26945",
"o. c #BC6B45",
"O. c #B16A4E",
"+. c #A3744E",
"@. c #AB754F",
"#. c #BA7147",
"$. c #B2734A",
"%. c #BC794E",
"&. c #AF6D52",
"*. c #B16D50",
"=. c #AE7251",
"-. c #A57950",
";. c #AC7C51",
":. c #B37354",
">. c #B97355",
",. c #B37955",
"<. c #BC7C55",
"1. c #B97759",
"2. c #BC7959",
"3. c #C26E45",
"4. c #CC6D41",
"5. c #D56D41",
"6. c #C57146",
"7. c #CB7346",
"8. c #C37448",
"9. c #C3784B",
"0. c #C8794A",
"q. c #D47545",
"w. c #DA7444",
"e. c #D27847",
"r. c #DA7B47",
"t. c #D47A48",
"y. c #DA7D49",
"u. c #C27B5A",
"i. c #C97D59",
"p. c #E57440",
"a. c #EB7640",
"s. c #EA7D45",
"d. c #E17B4F",
"f. c #F27E43",
"g. c #DF814B",
"h. c #CE835E",
"j. c #DE8155",
"k. c #D4865F",
"l. c #D7885F",
"z. c #E4854B",
"x. c #EE8348",
"c. c #EF8A4B",
"v. c #EE8D4D",
"b. c #F48347",
"n. c #F18447",
"m. c #FA8445",
"M. c #F08648",
"N. c #F68748",
"B. c #F1894A",
"V. c #F78D4B",
"C. c #F38F4D",
"Z. c #F78F4D",
"A. c #F98A49",
"S. c #F88D4B",
"D. c #FC8E4B",
"F. c #F6914F",
"G. c #FA934E",
"H. c #FD934D",
"J. c #FB944F",
"K. c #FF944E",
/* pixels */
"k.k.k.k.k.k.l.i.Y u Y Y I u u u u u u u Y Y P I | 2.2.2.2.u.k.l.",
"h.h.h.h.i.u.u.>.W W E d W W W W W W W W E d W W { :.:.:.1.u.h.k.",
"u.u.u.2.R Y P T 6.r.V N q.y.y.y.y.y.y.r.V N w.t.' I P Y &.2.2.u.",
"2.1.:.| W W T ' g.D.K D b.G.G.G.G.G.G.S.K D m.C.3.T T W { >.2.u.",
"2.>.Y T 6.y.t.y.v.S.K D b.G.G.G.G.G.J.V.K D b.F.z.t.r.e.' Y >.h.",
">.*.T ' g.H.H.Z.Z.x.H S s.B.B.B.B.B.B.M.p.C s.B.Z.G.K.C.3.T O.i.",
"Y Q 6.y.v.G.J.V.f.p.6.#.w.J J a.a.a.J p.6.#.q.a.N.G.J.Z.z.e. .T ",
"u W y.H.V.B.B.n.K C $.+.4.D D S S D D S $.+.4.D f.B.B.B.H.Z.o.Y ",
"u W g.G.f.J J J G J %.;.w.G G F F F G J 9.;.e.F K a.J a.A.C.o.Y ",
"u W y.N.J A D S M b ] ( x m m m m m m n ] ( z m Z D A S f.c.o.Y ",
"Y E 5.J D D L Z e - & * : , , , , , , : ; * % < g L F S J p...Y ",
"Y d N D D S S h : . X o X X X X X X X X X X   + t B D S D Z j Y ",
"Y d N D F m e 1 2 5 5 5 5 3 3 3 3 3 3 5 5 5 5 3 1 4 f D F S j Y ",
"Y d N D L c % X 7 W W T T T T T T T T T T T Q s # X r D L S j Y ",
"Y d N D L c % X 6 W { } R T [ } } } R T [ } ' i # X r D L S j Y ",
"I d N D L c - o 7 W +.+.R Y ) -.-.+.R Y ) +.[ a $ o t D L S j Y ",
"Y d N D L c - O 9 } -.+.R Y ) -.-.+.R Y ) +.@.~ * o r D L S j Y ",
"Y d N D L c - @ q ;.;.+.R Y ) +.-.+.R Y / +.;._ = o r D L S j Y ",
"Y d N D L c - @ q ;.;.+.R Y ) +.-.+.R Y / +.;._ = o r D L S j Y ",
"Y d N D L c - @ q ;.;.+.R Y ) +.-.+.R Y / +.;.) = o r D L S j Y ",
"Y d N D L c - @ q ;.;.+.R Y ) +.-.+.R Y / +.;.) = o r D L S j Y ",
"Y d N D L c - @ q ;.;.+.R T ) +.-.+.R Y / -.;._ = o r D L S j Y ",
"Y d N D L c - @ q ;.;.+.R T ) +.-.+.R Y / +.;._ = o r D L S j Y ",
"Y d N D L c - @ q ;.;.+.R T ) +.-.+.R Y / -.;._ = o r D L S j Y ",
"Y d N F L v - @ q ;.;.+.R Y ) +.-.+.R Y ) -.;._ = o y F G D k Y ",
"Y d N D L c - @ q ;.;.+.R Y ) +.-.+.R Y ) -.;._ = o r D K S j Y ",
"s T X.#.0.` $ O q ;.;.+.R Y ) +.-.+.R Y ) -.;.) = o 0 8.0.#.` Y ",
"s R ) -.;.! $ O q ;.;.+.R Y ) +.-.+.R Y / +.;.) > X 8 ;.;.+.^ Y ",
"Y T o.7.e.l % @ q ;.;.+.R Y ) +.-.+.R Y / +.;.) = o 0 7.e.3.Q Y ",
"Y d N D L c - @ q ;.;.+.R Y ) +.-.+.R Y / +.;.) = o y D L S k Y ",
"Y d N F F M s w } <.<.<.:.O.:.:.,.:.| { =.:.,.=.U p c D F S k Y ",
"Y d N D D S d.k.k.k.k.k.k.h.u.1.2.2.2.2.2.2.1.u.h.j.S S D S k Y "
};
