/* XPM */
static const char *field[] = {
/* columns rows colors chars-per-pixel */
"32 32 14 1 ",
"  c #B97758",
". c #BB7858",
"X c #BE7A59",
"o c #C07B5A",
"O c #C17C5A",
"+ c #C57E5B",
"@ c #CB815D",
"# c #CF835E",
"$ c #CF845E",
"% c #D0835E",
"& c #D0845E",
"* c #D5875F",
"= c #D7885F",
"- c #D58760",
/* pixels */
"******=&O.XXX........XXXXXXX.O&=",
"######&@o..XoOOOOOOOOoXXXXXX.o@&",
"OOOOOOOoX. X@&#$&&&&&@X .....XXo",
"...... XoOo+&=**&$$&*&+oOOOOOooo",
"...... X#&%&&**&+XX+&*&#########",
"OOOOOOo+&=**&**%OXXO&*--********",
"#######$***&&&&&$##$&--**&&*****",
"********&&&*&&&&***&$##$&&&&**&&",
"*******&&&*&&&&&&**&+XXO%***&&&&",
"&&&**********&&&&**%+XXO%=**&&&&",
"&&************&&&&&&$##$&&**&&&&",
"*&$#########$$&**&&*****&&**&***",
"=&+oOOOOOOOOO+&=*****&&&&&&&****",
"&@X ........ X#&###$&******&$###",
"oXX......... XoOOOo+&=****=&+oOO",
"oooOOOOOOOOOOoX .. X@&###%&#X ..",
"############&@X ...XXooooooXX...",
"************=&+oOOOoooooooooOOOO",
"*************&$#######$&&&&$####",
"&&&&&&&****&&&********&$$$$&****",
"&&&&&&******&&&******&+XooX+&***",
"&&&**&$####$&**&&&&**#OXXXX+&**&",
"&&**=&+oOOo+&=**&&***&$###$&***&",
"*&$#&@X .. X@&#$&&##&*****&$#$&&",
"=&+OOoX ...XXoX+&&OO#***=&+XXO%*",
"&#X..XoOOOOooXX+&&+O#****%OXX+%*",
"oXX..X@&#######$&&##&&&&&&$#$&&*",
"oooOO+&=******-******&&&&&**==**",
"#####$&****&***-**--****&&***&**",
"******&&&&&&*&$########$&&**&&&&",
"*****&&&&&&*=&+oOOOOOOo+&***&&&&",
"&&&&&&&&&&&**%o ...... o#**&&&&&"
};
