/* XPM */
static const char *wall[] = {
/* columns rows colors chars-per-pixel */
"32 32 175 2 ",
"   c #040E12",
".  c #0D1517",
"X  c #0E191A",
"o  c #151B1B",
"O  c #1A1F1F",
"+  c #2A221E",
"@  c #1D2120",
"#  c #222523",
"$  c #232824",
"%  c #2D2823",
"&  c #2B2E29",
"*  c #312722",
"=  c #342923",
"-  c #3A2C23",
";  c #322C28",
":  c #382C28",
">  c #31322C",
",  c #3C3228",
"<  c #3D3D33",
"1  c #442D24",
"2  c #413227",
"3  c #4F3225",
"4  c #463529",
"5  c #4C372A",
"6  c #52392C",
"7  c #5A3D2B",
"8  c #4C3D32",
"9  c #6F3F26",
"0  c #484237",
"q  c #494539",
"w  c #534738",
"e  c #68422D",
"r  c #71432A",
"t  c #6A4731",
"y  c #664938",
"u  c #734B35",
"i  c #754E3B",
"p  c #784E3C",
"a  c #73513C",
"s  c #7B513D",
"d  c #7C5340",
"f  c #72634E",
"g  c #756750",
"h  c #746A54",
"j  c #87563C",
"k  c #915A3C",
"l  c #9B5F3E",
"z  c #9D603F",
"x  c #A5623F",
"c  c #AA643F",
"v  c #B8683E",
"b  c #C06234",
"n  c #C06739",
"m  c #C46D3D",
"M  c #D36F3D",
"N  c #D6703C",
"B  c #DD723C",
"V  c #E5763E",
"C  c #EB773D",
"Z  c #855641",
"A  c #855A45",
"S  c #8A5B44",
"D  c #945E44",
"F  c #985F40",
"G  c #8E6047",
"H  c #9E6140",
"J  c #9B664C",
"K  c #9E684C",
"L  c #A26341",
"P  c #AA6642",
"I  c #AA6946",
"U  c #AE6D4D",
"Y  c #B36A42",
"T  c #BA6C42",
"R  c #B36E4A",
"E  c #B6714E",
"W  c #BA734F",
"Q  c #A56C50",
"!  c #AA6F51",
"~  c #B37354",
"^  c #BA7653",
"/  c #BD7856",
"(  c #B97758",
")  c #BC7859",
"_  c #8E7E63",
"`  c #C26E42",
"'  c #C57144",
"]  c #CB7243",
"[  c #D37543",
"{  c #DD7944",
"}  c #D57C4F",
"|  c #DC7F4F",
" . c #C07751",
".. c #C17955",
"X. c #C17C5A",
"o. c #C87E59",
"O. c #D17B51",
"+. c #E67C44",
"@. c #EA7D44",
"#. c #E37E49",
"$. c #F27E43",
"%. c #938161",
"&. c #A69674",
"*. c #AB9773",
"=. c #AA9B79",
"-. c #B3A27E",
";. c #BDA67E",
":. c #C38154",
">. c #CE835E",
",. c #D4865F",
"<. c #DA8458",
"1. c #D7885F",
"2. c #E5804B",
"3. c #E9864E",
"4. c #F08044",
"5. c #F7864A",
"6. c #F58A4E",
"7. c #E78C54",
"8. c #E98C55",
"9. c #EE9157",
"0. c #E1915C",
"q. c #F09056",
"w. c #F8965B",
"e. c #FFAC5B",
"r. c #D58760",
"t. c #E99B64",
"y. c #C0A478",
"u. c #CAAB7E",
"i. c #DBAD75",
"p. c #FEAF61",
"a. c #FCB166",
"s. c #F0B26E",
"d. c #FDB66B",
"f. c #FFB96A",
"g. c #EAA872",
"h. c #F6A970",
"j. c #EEB17A",
"k. c #F7BB77",
"l. c #F9BA75",
"z. c #FAB67D",
"x. c #F6BE7B",
"c. c #F8BC78",
"v. c #F6C07F",
"b. c #FFC37D",
"n. c #B9A680",
"m. c #BFAB85",
"M. c #C7AE83",
"N. c #CAB286",
"B. c #C7B489",
"V. c #D3B98B",
"C. c #EDC18C",
"Z. c #F5C181",
"A. c #FBC887",
"S. c #F3C589",
"D. c #F8C38B",
"F. c #F1C88F",
"G. c #E3C797",
"H. c #EDC591",
"J. c #EFCC96",
"K. c #EECE9A",
"L. c #F0C691",
"P. c #F0CB93",
"I. c #EED19E",
"U. c #FFD597",
"Y. c #F1D19D",
"T. c #FED69B",
"R. c #FFD89C",
"E. c #EDD5A3",
"W. c #EFD9A6",
"Q. c #F1D4A1",
"!. c #FBDBA3",
"~. c #FFDEA7",
"^. c #FFE1A4",
"/. c #FFE3AA",
"(. c #FFE9AF",
/* pixels */
",.,.,.,.,.,.1.,.X.) ) ) ) ) ) ) ) ) ) ) ) ) ) ) ) ) ) ) ) X.,.1.",
">.>.>.>.>.>.,.>.X.) ) ) X.X.X.X.X.X.X.X.X.X.) ) ) ) ) ) ) X.>.,.",
"X.X.X.X.X.X.X.X.) ) ( ~ -             i ,.>.) ( ) ) ) ) ) ) ) X.",
") ) ) ) ) ) ( ) ( ~ ~ Q 8 $ $ $ $ $ $ a X.X.( ) X.X.X.X.X.X.X.X.",
") ) ) ) ) ) ( ) Z 1 1 8 _ -.=.&.&.=.=.f 1 1 6 ~ >.>.>.>.>.>.>.>.",
"X.X.X.X.X.X.~ ! y > $ q u.^.R.T.T.!.R.%.& & > S / ,.,.,.,.,.,.,.",
">.>.>.>.>.>.S * g ;.n.y.s.f.f.f.f.f.f.i.-.m.*.w 3 / ,.,.,.,.,.,.",
",.,.,.,.X.! a 0 &././.T.l.a.a.a.a.a.a.b.U./.K.h < G ~ >.,.,.,.,.",
",.,.,.,.D = f N.K.Y.Y.Y.P.J.P.P.P.P.P.c.f.A.I.G.*.q 5 / ,.,.,.,.",
",.,.,.,.j . h ~.^.K.I.K.F.S.S.P.I.E.E.c.e.x.Q.(.V.< + / ,.,.,.,.",
",.,.,.,.Z o h Y.!.K.E.J.d.e.e.l.J.E.I.c.e.v.I.~.N.< = / ,.,.,.,.",
",.,.>.>.Z o h I.!.K.S.x.l.l.l.Z.K.E.I.c.e.x.I.~.M.< = / ,.,.,.,.",
"1.,.X.X.s o h I.!.J.d.p.S.I.I.K.K.I.I.c.e.v.I.~.M.< = / ,.,.,.,.",
",.>.) ( p o h Q.!.K.Z.l.x.x.x.x.c.k.l.x.x.F.Y./.B.< = / >.>.>.>.",
"X.) ) ) p o h K.!.K.E.P.d.e.e.e.e.e.e.x.I.I.Y.!.M.< = / X.X.X.X.",
"X.X.X.X.d o a t.D.E.E.K.S.v.Z.Z.Z.v.Z.F.I.W.Y.z.:., ; ~ ) ( ) ) ",
">.>.>.>.A o 9 +.h.J.I.I.I.I.I.I.I.I.I.I.K.I.C.w.b - ; ! ) ) ) ) ",
",.,.,.,.S o r @.6.t.C.W.W.E.E.E.E.E.E.W.E.j.9.5.n - ; ! X.X.X.X.",
",.,.,.,.S o e { C +.g.H.C.C.C.C.C.C.C.L.C.0.B $.m - ; ( >.>.>.>.",
",.,.,.,.D X 5 P [ @.3.8.8.8.8.7.7.8.8.q.8.' v +.m = : X.,.,.,.,.",
",.K J J a - e H ] @.@.V V V V V V B M N M c H ] v 7 4 A J K K ,.",
",.# @ O 5 j H L ] @.@.+.+.+.+.@.@.] c x c L L P P H u % o # # ,.",
",.4 4 2 t P P H ' @.@.+.+.+.+.@.@.] H F H H L H L Y k 6 2 4 4 ,.",
",.l l l z L H H ' @.@.+.+.+.+.@.@.] L H L L L L L L L l l l l ,.",
"1. .W W E U R ` [ @.@.@.@.@.@.+.] Y L H L L L L L L P E W W  .,.",
",.>.) ( ( ) O.+.+.+.+.+.+.@.@.[ P H L L L L L L L L I / ) X.,.,.",
"X.) ) ) ..} 2.@.4.@.] T T T ` T ^ ^ ^ ^ ^ I L L P E ..>.>.>.,.,.",
"X.X.X.X.O.+.+.+.+.{ T H H L L R ,.,.,.,.,.E P L I >.,.,.,.,.,.,.",
">.>.,.| #.+.[ T T T W / / ....o.,.,.r.r.,.>. .P P >.,.,.,.,.,.,.",
",.,.<.+.@.@.` H F L ..,.,.,.>.>.>.>.>.>.>.>.>.I P X.,.,.,.,.,.,.",
",.,.,.,.,.,.,.,.,.,.,.,.,.,.X.X.X.X.X.X.X.X.X.X.>.,.,.,.,.,.,.,.",
",.,.,.,.,.,.,.,.,.,.,.,.,.>.X.( ) ) ) ) ) ) ( X.>.,.,.,.,.,.,.,."
};
